# xmcd
#
# Track frame offsets: 
#        150
#        27530
#        59849
#        96022
#        135662
#        162812
#        192872
#        224454
#        254604
#        281812
#        314286
#
# Disc length: 4750 seconds
#
# Revision: 1
# Processed by: cddbd v1.5.2PL0 Copyright (c) Steve Scherf et al.
# Submitted via: ExactAudioCopy v1.3
#
DISCID=ab128c0b
DTITLE=Various Artist - Akella Presents - vol.89 - Long Time Blues  C
DTITLE=D1
DYEAR=2016
DGENRE=Blues
TTITLE0=Shake Your Hips - Red Bag's Girl
TTITLE1=Chris Cobb Band - Automobile
TTITLE2=Miguel M. and Brachay's Blues Band - I've Got A Problem, Baby
TTITLE3=Duke Robillard - Love Sick
TTITLE4=The Motives - Find Another Love
TTITLE5=Al Basile - The Catch-Up
TTITLE6=Twelve Bar Blues Band - Love That Burns
TTITLE7=Max Johns - Can I Get An Amem
TTITLE8=Mick Pini - You Can Make It
TTITLE9=Satisfied Drive - Forever
TTITLE10=Greg Koch and Other Bad Men - Stormy Monday
EXTD=
EXTT0=
EXTT1=
EXTT2=
EXTT3=
EXTT4=
EXTT5=
EXTT6=
EXTT7=
EXTT8=
EXTT9=
EXTT10=
PLAYORDER=
